<svg xmlns="http://www.w3.org/2000/svg" xmlns:xlink="http://www.w3.org/1999/xlink" width="22" height="7">
    <path fill="#B1C3D5" d="M18.9277 5.41406h-.58c-.0144 0-.0287-.00716-.043-.02148-.043-.01432-.0716-.02149-.0859-.02149-.3008-.04297-.5873-.13606-.8594-.27929-.2722-.14323-.5085-.32227-.709-.53711-.2005-.21485-.3652-.45833-.4941-.73047-.129-.27214-.2006-.55859-.2149-.85938-.0573-.67318.0895-1.26757.4404-1.7832.351-.515627.8415-.866535 1.4717-1.052734.043-.014323.0931-.028646.1504-.0429685.0573-.014323.1182-.0286458.1826-.0429687C18.251.0286458 18.3047.014323 18.3477 0h.623l.0859.0429688c.5586.0859382 1.042.3186832 1.4502.6982422.4082.379559.6696.848629.7842 1.407229l.0645.25781v.62305c-.0143.04297-.0287.07161-.043.08593-.0859.5586-.3151 1.03483-.6875 1.42872-.3724.39388-.8307.65527-1.375.78417l-.1934.06446c-.0572.01432-.1002.02148-.1289.02148zM2.42773 0h.58008c.01433 0 .02865.00716139.04297.0214844l.08594.0214844c.41537.0572922.79134.2005192 1.12793.4296872.33659.229168.60872.519204.8164.870114.20769.35092.31869.72689.33301 1.12793.04297.65886-.111 1.24968-.46191 1.77246-.35091.52279-.84147.87728-1.47168 1.06348-.04297 0-.20052.03581-.47266.10742h-.58008c-.01432 0-.0358-.00716-.06445-.02148-.02864-.01432-.05013-.02149-.06445-.02149C1.19596 5.17057.465497 4.52605.107422 3.4375c-.0143231-.04297-.0286459-.08952-.0429689-.13965-.014323-.05013-.025065-.10384-.0322265-.16113C.0250651 3.07943.014323 3.03646 0 3.00781v-.60156l.0214844-.02148c.014323-.04297.0214844-.07162.0214844-.08594.0572922-.3724.1790352-.71257.3652342-1.02051C.594402.970376.834308.712566 1.12793.504883c.29362-.207684.62663-.354492.99902-.4404299C2.18425.0501301 2.2845.028646 2.42773 0zm7.94917 0h.6016l.0537.0214844c.0358.014323.0609.0214844.0752.0214844.6159.1002612 1.1423.3831352 1.5791.8486332.4369.465498.6696.999018.6983 1.600588.0286.6875-.1433 1.29264-.5157 1.81543-.3724.52279-.8737.86295-1.5039 1.0205-.0859.01433-.2148.04297-.3867.08594h-.6016c-.0143 0-.0286-.00716-.0429-.02148l-.086-.02149c-.61585-.08593-1.14221-.36523-1.57906-.83789-.43685-.47266-.6696-1.00976-.69824-1.61132-.01433-.27214.00716-.53353.06445-.78418.05729-.25066.14323-.48698.25781-.70899.11459-.22201.25423-.42252.41895-.601562.16471-.179037.35449-.329426.56933-.451171.21485-.121746.45117-.218425.70899-.2900395C10.0762.0716145 10.2051.042969 10.3769 0z"/>
</svg>