<svg xmlns="http://www.w3.org/2000/svg" xmlns:xlink="http://www.w3.org/1999/xlink" width="22" height="23">
    <path fill="#4A90E2" d="M16.5215 1.48242c1.6901.97397 3.0257 2.30598 4.0068 3.9961C21.5094 7.16863 22 9.0091 22 11c0 1.9909-.4906 3.8314-1.4717 5.5215-.9811 1.6901-2.3167 3.0257-4.0068 4.0068C14.8314 21.5094 12.9909 22 11 22c-1.9909 0-3.83137-.4906-5.52148-1.4717-1.69012-.9811-3.02572-2.3167-4.00684-4.0068C.490555 14.8314 0 12.9909 0 11c0-1.9909.490555-3.83137 1.47168-5.52148C2.4528 3.7884 3.7884 2.4528 5.47852 1.47168 7.16863.490555 9.0091 0 11 0c1.9909 0 3.8314.494136 5.5215 1.48242zM15.4043 14.3301L12.0957 11l3.3086-3.33008c.1575-.15755.2363-.34017.2363-.54785 0-.20768-.0752-.38672-.2256-.53711-.1504-.15039-.333-.22558-.5478-.22558-.2149 0-.4011.07161-.5586.21484L11 9.9043 7.69141 6.57422c-.15756-.14323-.34375-.21484-.5586-.21484-.21484 0-.39746.07519-.54785.22558-.15039.15039-.22558.33301-.22558.54785 0 .21485.07877.39388.23632.53711L9.9043 11l-3.3086 3.3301c-.15755.1432-.23632.3222-.23632.5371 0 .2148.07519.3974.22558.5478.15039.1504.33301.2256.54785.2256.21485 0 .40104-.0716.5586-.2148L11 12.0957l3.3086 3.3301c.1575.1432.3437.2148.5586.2148.2148 0 .3974-.0752.5478-.2256.1504-.1504.2256-.333.2256-.5478 0-.2149-.0788-.3939-.2363-.5371z"/>
</svg>