<svg xmlns="http://www.w3.org/2000/svg" xmlns:xlink="http://www.w3.org/1999/xlink" width="116" height="116">
    <path fill="#B1C3D5" d="M68.2266 88.1953l7.2109 4.9922c-.5547 2.7735-2.2187 4.946-4.9922 6.5176-2.7734 1.5719-5.9166 2.3569-9.4297 2.3569H36.0547c-1.2943 0-2.4961.278-3.6055.833L17.75 115.375v-13.313h-4.4375c-3.69794 0-6.84113-1.063-9.42969-3.189C1.29426 96.7467 0 94.0195 0 90.6914V54.9141c0-3.5131 1.24803-6.4714 3.74414-8.875 2.49611-2.4037 5.50063-3.6055 9.01366-3.6055h.5547v28.0117c0 4.6224 1.7565 8.5052 5.2695 11.6485 3.5131 3.1432 7.6732 4.7148 12.4805 4.7148h32.4492c1.6641 0 3.2357.4622 4.7149 1.3867zM97.9023 0c4.8077 0 8.9217 1.61782 12.3417 4.85352 3.421 3.23569 5.131 7.16468 5.131 11.78708v46.5938c0 4.6224-1.71 8.5514-5.131 11.7871-3.42 3.2357-7.534 4.8535-12.3417 4.8535h-4.7148v17.75L72.3867 80.9844c-.7396-.7396-2.3112-1.1094-4.7148-1.1094H39.6602c-4.8074 0-8.9213-1.6178-12.3418-4.8535-3.4206-3.2357-5.1309-7.1647-5.1309-11.7871V16.6406c0-4.8073 1.3867-8.78251 4.1602-11.92576C29.1211 1.5716 32.9114 0 37.7188 0h60.1835z"/>
</svg>